<svg width="32" height="32" viewBox="0 0 32 32" fill="none" xmlns="http://www.w3.org/2000/svg">
<path d="M24.8 11.138C24.3739 9.11979 23.267 7.30937 21.6649 6.01018C20.0627 4.71098 18.0627 4.00197 16 4.00197C13.9373 4.00197 11.9373 4.71098 10.3351 6.01018C8.73299 7.30937 7.62611 9.11979 7.2 11.138C5.736 11.4431 4.421 12.2413 3.4746 13.3992C2.52819 14.557 2.00769 16.0046 2 17.5V19C2 19.2652 2.10536 19.5196 2.29289 19.7071C2.48043 19.8946 2.73478 20 3 20H15C15.2652 20 15.5196 19.8946 15.7071 19.7071C15.8946 19.5196 16 19.2652 16 19C16 18.7348 15.8946 18.4804 15.7071 18.2929C15.5196 18.1054 15.2652 18 15 18H4V17.503C4.00513 16.373 4.43349 15.286 5.20061 14.4563C5.96773 13.6266 7.0179 13.1145 8.144 13.021L8.96 12.957L9.059 12.145C9.26774 10.451 10.0887 8.89183 11.3673 7.76115C12.6458 6.63047 14.2937 6.00635 16.0005 6.00635C17.7073 6.00635 19.3552 6.63047 20.6337 7.76115C21.9123 8.89183 22.7333 10.451 22.942 12.145L23.041 12.958L23.856 13.021C25.0168 13.1094 26.098 13.6445 26.8722 14.5139C27.6464 15.3832 28.0533 16.5189 28.0071 17.6821C27.961 18.8453 27.4655 19.9453 26.6249 20.7506C25.7843 21.5559 24.6641 22.0038 23.5 22H7C6.73478 22 6.48043 22.1054 6.29289 22.2929C6.10536 22.4804 6 22.7348 6 23C6 23.2652 6.10536 23.5196 6.29289 23.7071C6.48043 23.8946 6.73478 24 7 24H23.5C25.1109 24.0017 26.6651 23.4048 27.8607 22.3251C29.0562 21.2454 29.808 19.76 29.97 18.1572C30.132 16.5545 29.6927 14.9487 28.7373 13.6516C27.7819 12.3545 26.3787 11.4587 24.8 11.138V11.138Z" fill="white"/>
<path d="M19 26H3C2.44772 26 2 26.4477 2 27C2 27.5523 2.44772 28 3 28H19C19.5523 28 20 27.5523 20 27C20 26.4477 19.5523 26 19 26Z" fill="white"/>
</svg>
