<svg width="54" height="51" viewBox="0 0 54 51" fill="none" xmlns="http://www.w3.org/2000/svg">
<path d="M14.0333 37.5844C14.2437 37.6545 14.4382 37.7654 14.6056 37.9108C14.7731 38.0562 14.9103 38.2331 15.0093 38.4315C15.1084 38.6299 15.1674 38.8459 15.1829 39.0671C15.1984 39.2883 15.1702 39.5105 15.0998 39.7208L13.4123 44.7833C13.2587 45.1918 12.9527 45.5249 12.5587 45.7126C12.1647 45.9004 11.7132 45.9282 11.2992 45.7902C10.8851 45.6521 10.5406 45.359 10.338 44.9724C10.1355 44.5858 10.0906 44.1358 10.2128 43.7167L11.9003 38.6542C12.0413 38.2295 12.3452 37.8782 12.7452 37.6776C13.1452 37.477 13.6086 37.4434 14.0333 37.5844ZM24.1583 37.5844C24.3687 37.6545 24.5632 37.7654 24.7306 37.9108C24.8981 38.0562 25.0353 38.2331 25.1343 38.4315C25.2334 38.6299 25.2924 38.8459 25.3079 39.0671C25.3234 39.2883 25.2952 39.5105 25.2248 39.7208L21.8498 49.8458C21.6962 50.2543 21.3902 50.5874 20.9962 50.7751C20.6022 50.9629 20.1507 50.9907 19.7367 50.8527C19.3226 50.7146 18.9781 50.4215 18.7755 50.0349C18.573 49.6483 18.5281 49.1983 18.6503 48.7792L22.0253 38.6542C22.1663 38.2295 22.4702 37.8782 22.8702 37.6776C23.2702 37.477 23.7336 37.4434 24.1583 37.5844ZM34.2833 37.5844C34.4937 37.6545 34.6882 37.7654 34.8556 37.9108C35.0231 38.0562 35.1603 38.2331 35.2593 38.4315C35.3584 38.6299 35.4174 38.8459 35.4329 39.0671C35.4484 39.2883 35.4202 39.5105 35.3498 39.7208L33.6623 44.7833C33.5087 45.1918 33.2027 45.5249 32.8087 45.7126C32.4147 45.9004 31.9632 45.9282 31.5492 45.7902C31.1351 45.6521 30.7906 45.359 30.588 44.9724C30.3855 44.5858 30.3406 44.1358 30.4628 43.7167L32.1503 38.6542C32.2913 38.2295 32.5952 37.8782 32.9952 37.6776C33.3952 37.477 33.8586 37.4434 34.2833 37.5844ZM44.4083 37.5844C44.6187 37.6545 44.8132 37.7654 44.9806 37.9108C45.1481 38.0562 45.2853 38.2331 45.3843 38.4315C45.4834 38.6299 45.5424 38.8459 45.5579 39.0671C45.5734 39.2883 45.5452 39.5105 45.4748 39.7208L42.0998 49.8458C42.0362 50.0637 41.9294 50.2665 41.7856 50.4422C41.6418 50.6178 41.464 50.7627 41.263 50.868C41.0619 50.9734 40.8417 51.0371 40.6154 51.0553C40.3891 51.0735 40.1615 51.0459 39.9462 50.9742C39.7308 50.9024 39.5322 50.7879 39.3621 50.6375C39.192 50.4872 39.054 50.3041 38.9564 50.0991C38.8588 49.8942 38.8035 49.6717 38.7938 49.4449C38.7842 49.2181 38.8204 48.9917 38.9003 48.7792L42.2753 38.6542C42.4163 38.2295 42.7202 37.8782 43.1202 37.6776C43.5202 37.477 43.9836 37.4434 44.4083 37.5844ZM45.2419 13.9661C44.541 10.433 42.7283 7.21683 40.0687 4.78774C37.4091 2.35865 34.0422 0.844078 30.4602 0.46548C26.8783 0.0868816 23.2691 0.864113 20.1605 2.68353C17.0518 4.50295 14.6068 7.26913 13.1828 10.5776C11.5859 10.3937 9.9682 10.5376 8.42883 11.0005C6.88946 11.4635 5.46078 12.2358 4.23026 13.2701C2.99974 14.3044 1.99328 15.579 1.27249 17.0159C0.551706 18.4527 0.131766 20.0215 0.0383826 21.6263C-0.0550009 23.2311 0.180137 24.838 0.7294 26.3487C1.27866 27.8595 2.13049 29.2422 3.23274 30.4123C4.33498 31.5823 5.66444 32.5151 7.13972 33.1535C8.615 33.7919 10.2051 34.1225 11.8125 34.125H43.875C46.4438 34.1279 48.9176 33.1544 50.7954 31.4016C52.6732 29.6488 53.8146 27.2478 53.9884 24.685C54.1622 22.1221 53.3554 19.589 51.7313 17.5988C50.1073 15.6085 47.7875 14.31 45.2419 13.9661ZM28.6875 3.75C32.0084 3.74931 35.213 4.97266 37.6886 7.18613C40.1642 9.3996 41.7371 12.4479 42.1065 15.7481C42.1524 16.1628 42.3503 16.5457 42.6619 16.8231C42.9735 17.1004 43.3769 17.2525 43.794 17.25H43.875C45.6653 17.25 47.3821 17.9612 48.648 19.227C49.9139 20.4929 50.625 22.2098 50.625 24C50.625 25.7902 49.9139 27.5071 48.648 28.773C47.3821 30.0388 45.6653 30.75 43.875 30.75H11.8125C10.618 30.7494 9.43728 30.4952 8.34837 30.0042C7.25945 29.5132 6.28721 28.7965 5.49594 27.9017C4.70468 27.0068 4.11244 25.9542 3.75839 24.8134C3.40434 23.6725 3.29655 22.4695 3.44217 21.284C3.58778 20.0984 3.98347 18.9572 4.60306 17.936C5.22265 16.9147 6.05201 16.0367 7.0363 15.3599C8.02058 14.6831 9.13735 14.2231 10.3127 14.0101C11.4881 13.7972 12.6953 13.8363 13.8544 14.1248C14.268 14.2279 14.7052 14.1707 15.0783 13.9648C15.4515 13.7588 15.7328 13.4193 15.8659 13.0144C16.7579 10.3183 18.4769 7.97201 20.7786 6.30886C23.0804 4.6457 25.8478 3.75033 28.6875 3.75Z" fill="white"/>
</svg>
