<svg width="27" height="27" viewBox="0 0 27 27" fill="none" xmlns="http://www.w3.org/2000/svg">
<path d="M16.0893 5.9842C13.216 3.11086 8.55621 3.11086 5.68287 5.9842C2.80953 8.85754 2.80953 13.5173 5.68287 16.3907C8.22827 18.9361 12.176 19.2234 15.04 17.2589L18.6223 21.266C19.2313 21.95 20.29 21.9781 20.9365 21.3316L21.0302 21.2379C21.6767 20.5914 21.6486 19.5326 20.9647 18.9236L16.9576 15.3413C18.9252 12.4742 18.6347 8.5296 16.0893 5.9842ZM14.3029 14.6042C12.4165 16.4906 9.35574 16.4906 7.46934 14.6042C5.58293 12.7178 5.58293 9.65707 7.46934 7.77067C9.35574 5.88426 12.4165 5.88426 14.3029 7.77067C16.1924 9.6602 16.1893 12.7178 14.3029 14.6042Z" fill="#D43FDA"/>
</svg>
