<svg width="86" height="95" viewBox="0 0 86 95" fill="none" xmlns="http://www.w3.org/2000/svg">
<path d="M83.3764 65.9063L76.6473 62.0192C77.865 60.765 79.2616 59.6978 80.7916 58.8525C81.792 58.2885 82.529 57.3522 82.8423 56.2474C83.1555 55.1426 83.0197 53.9588 82.4643 52.9537C81.9089 51.9486 80.9789 51.2036 79.8768 50.8809C78.7747 50.5582 77.5898 50.6839 76.58 51.2307C73.6585 52.8478 71.0696 55.0035 68.9503 57.5839L51.5119 47.5L68.9463 37.434C71.0651 40.0149 73.6541 42.1707 76.576 43.7871C77.0768 44.0694 77.6286 44.2498 78.1995 44.3178C78.7704 44.3858 79.3491 44.3401 79.9022 44.1832C80.4554 44.0264 80.9719 43.7616 81.4222 43.404C81.8724 43.0465 82.2474 42.6033 82.5255 42.1001C82.8035 41.5969 82.9792 41.0436 83.0423 40.4721C83.1054 39.9007 83.0547 39.3224 82.8931 38.7706C82.7316 38.2189 82.4623 37.7046 82.101 37.2574C81.7396 36.8102 81.2933 36.4391 80.7877 36.1653C79.2579 35.3195 77.8614 34.2524 76.6433 32.9986L83.3725 29.1116C83.8872 28.8364 84.3413 28.4605 84.7079 28.0063C85.0745 27.5521 85.346 27.0288 85.5063 26.4676C85.6666 25.9064 85.7124 25.3186 85.641 24.7394C85.5697 24.1601 85.3826 23.601 85.0908 23.0955C84.7991 22.59 84.4087 22.1482 83.9429 21.7966C83.4771 21.4449 82.9453 21.1905 82.3791 21.0485C81.813 20.9064 81.2241 20.8797 80.6474 20.9698C80.0708 21.0599 79.5181 21.265 79.0223 21.5729L72.2931 25.458C71.8138 23.7756 71.5857 22.0316 71.6162 20.2825C71.6288 19.7097 71.5283 19.14 71.3203 18.6062C71.1123 18.0723 70.801 17.5847 70.4042 17.1714C70.0074 16.7581 69.533 16.4271 69.008 16.1975C68.4831 15.9679 67.918 15.8441 67.3452 15.8333H67.264C66.1232 15.8331 65.0278 16.2807 64.2135 17.0798C63.3992 17.8789 62.9311 18.9657 62.9099 20.1064C62.8486 23.443 63.4194 26.7611 64.5922 29.8854L47.1577 39.9574V19.8273C50.4518 19.2829 53.6129 18.119 56.4736 16.3974C57.4628 15.8014 58.1747 14.8368 58.4527 13.7159C58.7307 12.5949 58.5521 11.4095 57.956 10.4203C57.36 9.43112 56.3954 8.71922 55.2745 8.44122C54.1536 8.16322 52.9681 8.34188 51.9789 8.93792C50.4794 9.83917 48.8547 10.5135 47.1577 10.9389V4.35417C47.1577 3.19937 46.6989 2.09187 45.8824 1.27531C45.0658 0.458741 43.9583 0 42.8035 0C41.6487 0 40.5412 0.458741 39.7247 1.27531C38.9081 2.09187 38.4494 3.19937 38.4494 4.35417V10.9389C36.7523 10.5135 35.1276 9.83917 33.6281 8.93792C32.6389 8.34188 31.4535 8.16322 30.3325 8.44122C29.2116 8.71922 28.2471 9.43112 27.651 10.4203C27.055 11.4095 26.8763 12.5949 27.1543 13.7159C27.4323 14.8368 28.1442 15.8014 29.1334 16.3974C31.9941 18.119 35.1552 19.2829 38.4494 19.8273V39.9574L21.0149 29.8854C22.1895 26.7601 22.7617 23.4406 22.7011 20.1024C22.6799 18.9617 22.2118 17.875 21.3975 17.0759C20.5832 16.2768 19.4878 15.8292 18.347 15.8294H18.2619C17.69 15.8399 17.1259 15.963 16.6016 16.1917C16.0774 16.4203 15.6033 16.75 15.2065 17.1618C14.8097 17.5737 14.498 18.0597 14.289 18.5921C14.0801 19.1245 13.9781 19.6929 13.9888 20.2647C14.0207 22.0163 13.7933 23.7631 13.3139 25.4481L6.58477 21.5729C6.08924 21.2773 5.53989 21.0832 4.96867 21.0017C4.39745 20.9203 3.81574 20.9532 3.25735 21.0986C2.69895 21.2439 2.17502 21.4988 1.71599 21.8484C1.25697 22.198 0.872002 22.6353 0.583474 23.135C0.294946 23.6347 0.10861 24.1867 0.0352934 24.7591C-0.0380228 25.3314 0.00314374 25.9126 0.156401 26.4688C0.309658 27.0251 0.57195 27.5454 0.92803 27.9994C1.28411 28.4534 1.72688 28.8321 2.2306 29.1135L8.95977 33.0006C7.74167 34.2544 6.34516 35.3214 4.81539 36.1673C4.30982 36.441 3.86347 36.8122 3.5021 37.2594C3.14073 37.7065 2.87149 38.2208 2.70993 38.7726C2.54837 39.3244 2.49768 39.9027 2.56079 40.4741C2.6239 41.0456 2.79955 41.5989 3.07762 42.1021C3.35569 42.6053 3.73066 43.0485 4.1809 43.406C4.63113 43.7635 5.14772 44.0284 5.70084 44.1852C6.25397 44.342 6.83267 44.3878 7.40357 44.3198C7.97446 44.2518 8.52624 44.0714 9.02706 43.7891C11.9486 42.172 14.5374 40.0163 16.6567 37.4359L34.0952 47.5L16.6607 57.566C14.5414 54.9856 11.9525 52.83 9.03102 51.2129C8.5302 50.9306 7.97842 50.7502 7.40753 50.6822C6.83663 50.6142 6.25792 50.6599 5.7048 50.8168C5.15168 50.9736 4.63509 51.2384 4.18485 51.596C3.73462 51.9535 3.35965 52.3967 3.08158 52.8999C2.80351 53.4031 2.62786 53.9564 2.56475 54.5279C2.50164 55.0993 2.55233 55.6776 2.71389 56.2294C2.87545 56.7811 3.14469 57.2954 3.50606 57.7426C3.86743 58.1898 4.31378 58.5609 4.81935 58.8347C6.34911 59.6805 7.74563 60.7476 8.96373 62.0014L2.2306 65.9063C1.72688 66.1877 1.28411 66.5664 0.92803 67.0204C0.57195 67.4744 0.309658 67.9947 0.156401 68.551C0.00314374 69.1072 -0.0380228 69.6884 0.0352934 70.2607C0.10861 70.833 0.294946 71.3851 0.583474 71.8848C0.872002 72.3844 1.25697 72.8218 1.71599 73.1714C2.17502 73.521 2.69895 73.7759 3.25735 73.9212C3.81574 74.0666 4.39745 74.0995 4.96867 74.0181C5.53989 73.9366 6.08924 73.7425 6.58477 73.4469L13.3139 69.5618C13.7932 71.2442 14.0213 72.9882 13.9908 74.7373C13.9707 75.8908 14.4091 77.0051 15.2099 77.8356C16.0107 78.6661 17.1084 79.1448 18.2619 79.1667H18.343C19.4839 79.1669 20.5792 78.7193 21.3935 77.9202C22.2078 77.1211 22.6759 76.0343 22.6972 74.8936C22.7585 71.557 22.1877 68.2389 21.0149 65.1146L38.4494 55.0426V75.1727C35.1552 75.7171 31.9941 76.881 29.1334 78.6026C28.1442 79.1986 27.4323 80.1632 27.1543 81.2841C26.8763 82.4051 27.055 83.5905 27.651 84.5797C28.2471 85.5689 29.2116 86.2808 30.3325 86.5588C31.4535 86.8368 32.6389 86.6581 33.6281 86.0621C35.1276 85.1608 36.7523 84.4865 38.4494 84.0612V90.6458C38.4494 91.8006 38.9081 92.9081 39.7247 93.7247C40.5412 94.5413 41.6487 95 42.8035 95C43.9583 95 45.0658 94.5413 45.8824 93.7247C46.6989 92.9081 47.1577 91.8006 47.1577 90.6458V84.0612C48.8547 84.4865 50.4794 85.1608 51.9789 86.0621C52.9681 86.6581 54.1536 86.8368 55.2745 86.5588C56.3954 86.2808 57.36 85.5689 57.956 84.5797C58.5521 83.5905 58.7307 82.4051 58.4527 81.2841C58.1747 80.1632 57.4628 79.1986 56.4736 78.6026C53.6129 76.881 50.4518 75.7171 47.1577 75.1727V55.0426L64.5922 65.1146C63.4175 68.2399 62.8454 71.5594 62.9059 74.8976C62.9272 76.0383 63.3953 77.125 64.2096 77.9241C65.0238 78.7232 66.1192 79.1708 67.2601 79.1706H67.3452C67.917 79.1601 68.4812 79.037 69.0054 78.8083C69.5296 78.5797 70.0037 78.25 70.4005 77.8382C70.7973 77.4263 71.1091 76.9403 71.318 76.4079C71.527 75.8755 71.629 75.3071 71.6182 74.7353C71.5863 72.9837 71.8137 71.237 72.2931 69.5519L79.0223 73.437C79.5178 73.7551 80.0727 73.9695 80.6534 74.0671C81.2341 74.1646 81.8286 74.1434 82.4009 74.0046C82.9732 73.8659 83.5114 73.6125 83.9829 73.2598C84.4545 72.907 84.8496 72.4623 85.1443 71.9525C85.4391 71.4428 85.6274 70.8785 85.6978 70.2938C85.7682 69.7092 85.7193 69.1163 85.5541 68.5511C85.3888 67.9859 85.1106 67.4601 84.7363 67.0055C84.362 66.5509 83.8994 66.1769 83.3764 65.9063V65.9063Z" fill="black"/>
</svg>
