<svg width="81" height="77" viewBox="0 0 81 77" fill="none" xmlns="http://www.w3.org/2000/svg">
<path d="M34.4199 55.3358L43.2707 45.4875C43.7706 44.9263 44.4648 44.5755 45.2131 44.506C45.9614 44.4365 46.7083 44.6535 47.303 45.113C47.8976 45.5726 48.2959 46.2406 48.4173 46.9823C48.5388 47.724 48.3744 48.4841 47.9574 49.1094L47.6882 49.4577L43.2905 54.3502H52.2997C52.8246 54.3497 53.3402 54.4883 53.7941 54.752C54.2479 55.0157 54.6237 55.3949 54.8832 55.8512C55.1428 56.3074 55.2767 56.8243 55.2713 57.3492C55.266 57.874 55.1216 58.3881 54.8528 58.839L54.6232 59.1715L41.9091 75.1275C41.4428 75.7154 40.7711 76.1049 40.0293 76.2176C39.2874 76.3303 38.5304 76.158 37.9104 75.7351C37.2905 75.3123 36.8537 74.6705 36.6879 73.9387C36.522 73.2068 36.6395 72.4394 37.0166 71.7906L37.266 71.4304L46.1405 60.2877H36.6287C36.0904 60.2879 35.5623 60.1418 35.1007 59.865C34.6391 59.5881 34.2614 59.191 34.0081 58.7161C33.7548 58.2412 33.6354 57.7064 33.6626 57.1688C33.6898 56.6313 33.8626 56.1113 34.1626 55.6644L34.4199 55.3358L43.2707 45.4875L34.4199 55.3358V55.3358ZM44.4662 12.8233C57.0062 12.8233 64.1232 21.1279 65.1564 31.1544H65.473C67.3899 31.1518 69.2886 31.5268 71.0605 32.2581C72.8324 32.9894 74.4429 34.0626 75.8 35.4164C77.1571 36.7702 78.2342 38.378 78.9698 40.1482C79.7054 41.9183 80.0851 43.816 80.0872 45.7329C80.0846 47.6495 79.7045 49.5468 78.9687 51.3164C78.2329 53.0861 77.1557 54.6935 75.7986 56.0469C74.4416 57.4003 72.8312 58.4731 71.0596 59.2041C69.2879 59.9352 67.3896 60.3101 65.473 60.3075L58.3955 60.3115C58.9902 59.4352 59.3074 58.4004 59.306 57.3415C59.3046 56.2826 58.9846 55.2486 58.3876 54.374L65.2514 54.3819C70.2428 54.3819 74.2882 50.4156 74.2882 45.5271C74.2882 40.6385 70.2428 36.6762 65.2514 36.6762H62.5201C61.0714 36.6762 59.8087 35.5679 59.8087 34.1508C59.8087 25.106 52.6639 18.7529 44.4662 18.7529C36.2645 18.7529 29.1197 25.2208 29.1197 34.1508C29.1197 35.564 27.857 36.6762 26.4122 36.6762H23.681C18.6855 36.6762 14.6401 40.6346 14.6401 45.5271C14.6401 50.4156 18.6855 54.3819 23.677 54.3819L30.6516 54.3779C30.0541 55.2523 29.7338 56.2864 29.7324 57.3454C29.731 58.4045 30.0485 59.4394 30.6437 60.3154L23.4553 60.3075C21.5388 60.3101 19.6405 59.9352 17.8688 59.2041C16.0971 58.4731 14.4868 57.4003 13.1297 56.0469C11.7727 54.6935 10.6955 53.0861 9.95966 51.3164C9.22383 49.5468 8.84376 47.6495 8.84116 45.7329C8.84324 43.816 9.22292 41.9183 9.95853 40.1482C10.6941 38.378 11.7712 36.7702 13.1283 35.4164C14.4855 34.0626 16.096 32.9894 17.8679 32.2581C19.6398 31.5268 21.5384 31.1518 23.4553 31.1544H23.772C24.813 21.0606 31.9262 12.8273 44.4662 12.8273V12.8233ZM32.5832 0.916664C38.9839 0.916664 44.6562 4.14271 48.0207 9.07875C46.8412 8.93772 45.6542 8.86766 44.4662 8.86895C42.9026 8.86895 41.3985 8.98375 39.9576 9.20541C38.2057 7.96374 36.1686 7.1848 34.0352 6.94088C31.9018 6.69696 29.7413 6.99599 27.7544 7.81019C25.7675 8.62439 24.0184 9.92738 22.6697 11.5982C21.3209 13.269 20.4161 15.2535 20.0393 17.3675L19.7503 19.0062C19.5892 19.9233 19.11 20.7543 18.3969 21.353C17.6838 21.9517 16.7825 22.2799 15.8514 22.2798H13.9118C12.517 22.2783 11.1532 22.6904 9.99254 23.4639C8.83192 24.2374 7.92666 25.3376 7.39118 26.6254C6.8557 27.9133 6.71404 29.331 6.9841 30.6993C7.25417 32.0677 7.92383 33.3253 8.90845 34.3131C7.66158 35.8965 6.67199 37.6975 5.99908 39.645C3.8947 38.031 2.3347 35.8116 1.52865 33.2851C0.722596 30.7585 0.709113 28.0457 1.49001 25.5113C2.27091 22.9768 3.80877 20.742 5.897 19.1072C7.98523 17.4724 10.5238 16.5158 13.1716 16.366L14.1889 16.3423C14.9543 12.0198 17.2172 8.10492 20.5807 5.28425C23.9443 2.46359 28.1936 0.917311 32.5832 0.916664V0.916664Z" fill="black"/>
</svg>
